<?xml version="1.0" encoding="UTF-8" standalone="no"?>
<svg
   version="1.0"
   width="533.59302pt"
   height="500.4476pt"
   viewBox="0 0 533.59301 500.44761"
   preserveAspectRatio="xMidYMid"
   id="svg15"
   sodipodi:docname="trails_and_stats_logo.svg"
   inkscape:version="1.3 (0e150ed, 2023-07-21)"
   xmlns:inkscape="http://www.inkscape.org/namespaces/inkscape"
   xmlns:sodipodi="http://sodipodi.sourceforge.net/DTD/sodipodi-0.dtd"
   xmlns:xlink="http://www.w3.org/1999/xlink"
   xmlns="http://www.w3.org/2000/svg"
   xmlns:svg="http://www.w3.org/2000/svg">
  <defs
     id="defs15">
    <linearGradient
       id="linearGradient33"
       inkscape:collect="always">
      <stop
         style="stop-color:#e7e7e7;stop-opacity:1;"
         offset="0"
         id="stop33" />
      <stop
         style="stop-color:#e7e7e7;stop-opacity:0;"
         offset="1"
         id="stop34" />
    </linearGradient>
    <linearGradient
       inkscape:collect="always"
       xlink:href="#linearGradient33"
       id="linearGradient34"
       x1="45.753479"
       y1="273.6326"
       x2="610.52429"
       y2="273.6326"
       gradientUnits="userSpaceOnUse"
       gradientTransform="matrix(0.89439651,0,0,1.0534328,39.790863,-38.295419)" />
  </defs>
  <sodipodi:namedview
     id="namedview15"
     pagecolor="#ffffff"
     bordercolor="#000000"
     borderopacity="0.25"
     inkscape:showpageshadow="2"
     inkscape:pageopacity="0.0"
     inkscape:pagecheckerboard="0"
     inkscape:deskcolor="#d1d1d1"
     inkscape:document-units="pt"
     inkscape:export-bgcolor="#ffffffff"
     inkscape:zoom="0.68111408"
     inkscape:cx="400.07982"
     inkscape:cy="295.83884"
     inkscape:window-width="1680"
     inkscape:window-height="748"
     inkscape:window-x="2047"
     inkscape:window-y="112"
     inkscape:window-maximized="0"
     inkscape:current-layer="layer1">
    <inkscape:page
       x="0"
       y="0"
       width="533.59302"
       height="500.4476"
       id="page34"
       margin="0 0 1.4681877 0"
       bleed="0"
       inkscape:export-filename="../Documents/Writing/Substack/trails_and_stats_logo.png"
       inkscape:export-xdpi="96"
       inkscape:export-ydpi="96" />
  </sodipodi:namedview>
  <g
     transform="matrix(0.1,0,0,-0.1,-66.06823,648)"
     fill="#000000"
     stroke="none"
     id="g15"
     sodipodi:insensitive="true"
     style="display:none">
    <path
       d="m 3375,5859 c -209,-18 -457,-69 -670,-140 -344,-115 -730,-351 -995,-610 -248,-242 -500,-619 -645,-964 -36,-86 -145,-417 -145,-440 0,-13 27,1 137,73 67,42 134,84 149,93 26,13 32,27 53,113 26,108 27,110 128,146 73,26 76,29 96,95 44,144 179,429 228,480 43,44 108,20 265,-96 157,-115 207,-145 274,-159 74,-16 52,-26 312,147 132,88 193,134 207,159 l 20,34 h 90 c 65,0 94,4 104,14 8,8 38,83 66,167 28,84 64,171 80,193 15,23 53,77 83,121 31,44 74,117 96,161 43,85 89,134 126,134 12,0 37,-8 57,-18 48,-24 212,-158 279,-226 l 54,-56 h 67 c 77,0 71,5 144,-140 61,-121 76,-136 136,-144 55,-8 73,-21 150,-116 l 36,-45 54,24 c 99,43 252,101 286,107 33,6 38,2 196,-158 89,-90 194,-189 232,-220 39,-31 79,-69 91,-85 12,-15 49,-48 84,-71 l 62,-43 61,40 c 33,23 64,41 68,41 4,0 5,22 2,48 -12,107 48,217 135,243 37,11 50,10 95,-4 106,-33 166,-140 138,-244 -27,-99 -176,-167 -261,-118 -36,21 -42,19 -89,-27 l -43,-43 39,-8 c 21,-4 66,-29 103,-56 l 65,-50 40,39 c 72,70 157,85 243,41 62,-32 76,-55 80,-129 4,-91 -15,-128 -87,-164 -42,-22 -69,-28 -117,-28 h -63 l -83,-69 c -46,-38 -105,-100 -133,-138 -27,-37 -83,-106 -124,-151 l -74,-84 26,-54 c 33,-67 34,-111 4,-155 -47,-71 -126,-101 -207,-80 -57,15 -87,36 -125,91 -27,38 -40,47 -110,70 -44,15 -102,37 -129,50 -27,12 -66,25 -87,27 -34,5 -41,1 -77,-36 -36,-38 -43,-41 -91,-41 -46,0 -56,4 -95,40 -24,22 -47,40 -51,40 -4,0 -47,-37 -94,-83 -92,-88 -157,-137 -425,-317 -94,-63 -171,-121 -171,-127 0,-14 -101,-93 -118,-93 -6,0 -18,-7 -28,-16 -14,-12 -15,-22 -8,-49 12,-44 -6,-81 -59,-124 -80,-63 -132,-61 -221,9 -48,38 -71,80 -71,133 0,24 -46,50 -148,82 -48,14 -150,47 -227,72 l -140,45 -54,-36 c -44,-30 -62,-36 -106,-36 -49,0 -99,15 -136,42 -14,9 -25,5 -60,-24 -24,-19 -93,-70 -154,-113 -60,-43 -125,-91 -143,-106 -53,-46 -66,-43 -332,81 l -154,72 -37,-21 c -52,-30 -119,-28 -174,5 l -44,25 -49,-25 c -27,-14 -73,-47 -103,-74 -57,-51 -131,-104 -162,-115 -22,-8 -57,9 -57,28 0,13 84,82 225,186 39,28 75,53 80,55 6,3 11,28 11,57 0,116 88,213 185,204 90,-8 160,-83 167,-178 4,-56 6,-61 36,-73 18,-7 50,-24 72,-38 61,-38 222,-108 248,-108 12,0 64,28 114,63 51,34 132,89 182,122 86,58 89,61 84,92 -11,73 45,171 119,210 47,24 128,13 175,-23 44,-36 82,-105 82,-150 0,-23 6,-34 18,-38 422,-122 442,-129 505,-168 47,-30 49,-31 115,-20 37,6 79,8 95,5 38,-8 82,13 120,56 47,54 110,101 220,166 54,31 126,78 160,104 238,182 361,270 386,276 30,6 30,7 29,78 -2,87 15,125 74,167 63,46 109,55 161,32 60,-28 126,-100 147,-162 17,-49 21,-54 76,-77 33,-14 96,-39 141,-55 l 82,-30 49,50 c 62,64 103,85 156,80 41,-3 44,-1 97,62 30,36 76,94 101,130 47,66 78,100 186,204 60,57 61,59 48,90 -9,23 -32,42 -84,71 -93,53 -166,123 -149,143 8,10 -2,8 -28,-6 -54,-27 -202,-145 -243,-193 -30,-34 -39,-39 -78,-39 -43,0 -48,3 -157,109 -62,60 -150,138 -196,173 -97,73 -131,124 -131,197 0,26 -9,78 -21,116 -11,39 -24,89 -27,112 l -7,42 -65,-32 c -58,-29 -71,-40 -120,-114 -75,-112 -75,-112 -105,-83 -33,31 -32,52 6,118 17,30 29,55 27,57 -2,1 -12,7 -24,13 -11,6 -31,32 -44,58 -31,59 -52,72 -129,80 l -63,7 -20,46 c -49,117 -102,210 -122,215 -12,3 -43,6 -71,6 h -50 l -144,140 c -78,77 -147,140 -151,140 -16,0 21,-109 99,-291 33,-77 41,-108 41,-157 v -60 l 103,-53 c 102,-54 102,-54 110,-99 28,-154 57,-222 129,-298 38,-41 49,-58 46,-80 -2,-22 -9,-28 -34,-30 -27,-3 -38,5 -77,48 -73,81 -103,135 -126,223 -33,125 -29,120 -143,175 -57,28 -108,59 -115,70 -9,15 -9,36 -1,86 11,66 11,67 -29,154 -23,48 -53,120 -68,160 -31,85 -33,84 -95,-16 -22,-37 -67,-102 -99,-145 -60,-82 -110,-201 -147,-352 -10,-38 -22,-73 -27,-77 -6,-3 -54,-9 -106,-13 l -96,-7 -50,-48 c -27,-26 -115,-92 -195,-145 -80,-54 -160,-111 -178,-127 -18,-15 -39,-28 -47,-28 -19,0 -19,-24 0,-40 8,-7 47,-55 86,-106 l 72,-94 h 116 116 l 53,-85 c 45,-72 59,-86 90,-95 80,-24 145,-23 321,5 l 174,28 21,-25 c 12,-14 62,-75 111,-136 69,-85 99,-115 130,-127 22,-9 86,-39 141,-68 l 102,-51 43,38 c 24,21 136,127 248,235 112,108 219,207 238,220 31,23 35,23 50,9 10,-11 13,-25 10,-40 -4,-14 -129,-149 -278,-301 -223,-228 -276,-277 -299,-277 -15,0 -64,23 -111,52 -128,78 -160,95 -207,109 -36,10 -51,23 -83,68 -21,31 -65,85 -97,120 l -59,63 -130,-21 c -129,-21 -233,-50 -261,-73 -13,-11 -14,-8 -8,19 9,37 7,39 -86,62 l -73,18 -35,65 c -62,114 -43,103 -177,100 l -118,-3 -33,55 c -18,30 -56,84 -85,119 -29,36 -64,85 -77,109 -22,43 -27,46 -99,67 -59,17 -105,42 -208,112 -78,52 -133,84 -133,75 0,-21 43,-130 91,-231 33,-69 44,-106 48,-159 l 6,-70 125,-60 c 123,-60 125,-62 134,-101 21,-101 49,-179 70,-199 35,-32 167,-123 201,-137 17,-7 38,-19 48,-27 20,-17 23,-62 5,-80 -28,-28 -75,-9 -188,77 -41,31 -91,67 -111,80 -53,35 -77,77 -101,176 -14,55 -27,89 -37,93 -49,17 -240,112 -260,129 -24,20 -24,20 -8,62 25,62 21,86 -27,175 -24,45 -58,125 -76,179 -17,53 -35,97 -39,97 -17,0 -144,-289 -180,-408 -24,-81 -31,-87 -139,-112 -40,-9 -53,-17 -56,-34 -10,-57 -40,-183 -47,-196 -4,-9 -27,-21 -51,-27 -38,-11 -211,-136 -346,-250 l -33,-28 -15,-160 c -18,-179 -15,-559 5,-655 6,-30 20,-109 32,-175 23,-138 74,-316 126,-448 42,-108 144,-323 166,-352 15,-20 16,-19 22,8 6,22 13,27 36,27 48,0 64,-36 61,-142 -3,-102 0,-109 106,-260 38,-54 58,-75 64,-66 4,7 8,229 7,493 v 480 l -47,30 c -95,60 -127,172 -77,271 36,72 81,99 165,99 56,0 73,-4 108,-27 50,-34 91,-101 100,-165 l 7,-48 255,-130 c 140,-72 315,-163 388,-203 74,-40 140,-72 148,-72 8,0 14,10 14,23 0,33 25,63 76,93 37,22 54,26 93,22 42,-4 48,-3 44,12 -6,23 54,72 133,110 34,17 64,36 67,44 8,20 171,98 176,84 4,-11 -45,-59 -169,-168 -82,-72 -128,-100 -164,-100 -27,0 -28,-1 -14,-17 20,-23 38,-87 38,-138 0,-48 -29,-99 -68,-119 -66,-34 -65,-38 49,-152 57,-58 128,-121 157,-140 28,-18 52,-39 52,-46 1,-7 2,-288 3,-625 1,-336 4,-614 7,-617 12,-12 145,-34 154,-25 6,5 11,328 13,806 2,439 5,804 8,811 2,7 22,12 44,12 34,0 42,-4 46,-22 3,-13 5,-386 3,-831 l -3,-807 30,-1 c 17,0 53,-2 81,-5 l 51,-5 7,133 c 4,73 6,582 5,1131 -3,1084 -6,1017 51,1017 56,0 53,76 55,-1151 l 2,-1134 73,-1 c 40,-1 80,0 89,3 15,4 16,87 16,982 0,1062 -3,1011 55,1011 51,0 52,-4 50,-352 -1,-178 -2,-619 -1,-982 l 1,-658 63,6 c 34,4 71,9 82,11 11,2 23,4 27,4 4,1 9,531 10,1179 3,982 5,1182 17,1195 16,21 64,22 80,3 8,-10 11,-317 11,-1181 -1,-642 1,-1169 4,-1172 2,-2 41,4 85,14 l 81,18 v 1225 c 0,940 3,1229 12,1238 14,14 67,16 86,4 10,-7 12,-248 10,-1220 -1,-666 1,-1215 5,-1218 4,-4 36,5 72,19 36,15 71,27 79,27 10,0 14,42 18,198 8,293 3,2347 -6,2492 -6,102 -5,128 6,144 18,23 64,24 86,2 16,-15 17,-129 20,-1399 2,-760 5,-1383 7,-1385 2,-2 44,16 94,39 l 91,43 1,930 c 1,512 0,1071 -1,1243 -2,303 -1,312 18,322 12,6 30,11 41,11 49,0 48,42 43,-1201 -2,-639 -1,-1181 3,-1206 l 6,-44 32,19 c 18,11 59,36 91,56 l 59,36 3,1237 c 2,681 4,1241 4,1245 0,13 59,19 80,8 l 21,-11 -2,-1194 c -2,-657 0,-1197 3,-1200 4,-4 50,28 102,70 l 96,77 1,612 c 1,336 5,834 8,1106 l 6,495 42,3 c 33,2 44,-1 52,-17 8,-13 8,-248 0,-783 -12,-846 -6,-1288 17,-1288 22,0 176,200 169,218 -3,9 -5,297 -3,641 2,344 1,858 -1,1141 -4,553 -6,528 46,544 15,5 28,1 41,-12 18,-18 19,-51 16,-1073 -1,-580 0,-1066 3,-1082 3,-15 11,-27 18,-27 13,0 69,85 135,202 l 32,58 -4,732 c -4,943 -1,1187 13,1204 17,21 76,18 88,-4 6,-11 9,-338 8,-852 -2,-786 -1,-835 15,-838 11,-2 21,5 27,20 119,309 163,471 202,753 31,220 33,622 5,798 -12,75 -23,117 -31,117 -42,0 -260,174 -292,234 -29,54 -29,56 11,56 26,0 56,-17 136,-75 56,-41 108,-75 116,-75 32,0 -136,507 -201,607 -13,19 -18,20 -44,10 -39,-14 -53,-1 -23,23 31,25 28,42 -19,129 -121,220 -242,382 -439,584 -304,314 -676,541 -1125,689 -315,103 -765,149 -1150,117 z m -932,-525 c 91,-22 148,-68 188,-149 26,-54 33,-79 32,-129 0,-104 -56,-196 -147,-244 -92,-48 -231,-32 -311,36 -58,49 -96,137 -96,224 -1,127 95,242 222,267 24,5 45,9 47,10 2,1 31,-6 65,-15 z m 1027,-505 c 38,-70 -46,-297 -163,-443 -120,-150 -180,-216 -197,-216 -11,0 -30,10 -45,23 -25,22 -25,23 -8,48 10,15 62,78 117,140 95,110 149,197 176,284 6,22 28,75 47,117 36,78 52,88 73,47 z m 1124,-284 c 3,-9 -7,-28 -24,-45 -17,-17 -43,-57 -59,-88 -40,-79 -223,-267 -269,-277 -18,-4 -36,-4 -40,-1 -12,13 30,78 105,159 43,46 95,112 116,146 29,46 52,69 90,91 59,34 72,36 81,15 z m -284,-59 c 0,-45 -53,-115 -87,-116 -21,0 -15,17 28,90 44,73 59,80 59,26 z M 1840,3985 c 23,-27 5,-100 -53,-217 -36,-73 -76,-136 -112,-177 -32,-36 -75,-89 -96,-118 -22,-29 -43,-53 -48,-53 -5,0 -21,10 -37,22 -16,12 -31,23 -32,24 -12,8 20,55 89,131 96,105 142,179 177,288 14,44 32,88 40,98 18,21 55,22 72,2 z M 3012,2018 c 17,-29 14,-233 -3,-265 -7,-13 -22,-23 -34,-23 -19,0 -23,7 -29,46 -14,108 -3,213 27,252 14,18 25,15 39,-10 z"
       id="path2" />
    <path
       d="m 2299,5219 c -89,-52 -111,-188 -43,-269 56,-66 144,-80 220,-35 46,27 84,90 84,141 0,49 -44,129 -86,158 -49,33 -122,35 -175,5 z"
       id="path3" />
    <path
       d="m 4682,4848 c -18,-18 -15,-55 13,-162 14,-53 25,-119 25,-147 0,-57 13,-73 120,-153 30,-22 97,-80 148,-128 66,-61 98,-85 110,-81 22,8 127,84 175,126 l 37,34 -55,18 c -44,14 -64,27 -102,72 -26,30 -60,61 -77,70 -38,19 -262,238 -318,311 -42,54 -55,61 -76,40 z"
       id="path4" />
  </g>
  <g
     inkscape:groupmode="layer"
     id="layer1"
     inkscape:label="Trace"
     transform="translate(-66.06823)">
    <path
       style="opacity:0.93;fill:url(#linearGradient34);fill-opacity:1;stroke:#000000;stroke-width:11.6479;stroke-linecap:round;stroke-linejoin:round;stroke-dasharray:none;stroke-opacity:1"
       id="path26"
       sodipodi:type="arc"
       sodipodi:cx="333.27713"
       sodipodi:cy="249.95816"
       sodipodi:rx="247.19815"
       sodipodi:ry="231.41483"
       sodipodi:start="0"
       sodipodi:end="6.2820505"
       sodipodi:open="true"
       sodipodi:arc-type="arc"
       d="M 580.47528,249.95816 A 247.19815,231.41483 0 0 1 333.34726,481.37298 247.19815,231.41483 0 0 1 86.079019,250.08947 247.19815,231.41483 0 0 1 333.06674,18.543419 247.19815,231.41483 0 0 1 580.47512,249.69555" />
    <path
       style="fill:none;stroke:#b9b9b9;stroke-width:12;stroke-linecap:round;stroke-linejoin:round;stroke-dasharray:none;stroke-opacity:1"
       d="m 91.334358,286.95043 35.624892,-22.26557 5.08927,-22.26555 16.54013,-6.99776 22.26557,-51.52886 9.10437,-0.27115 48.78608,28.26214 53.43734,-36.26106 16.54014,-2.54463 3.81695,-3.1808 12.72318,-31.17178 27.99099,-38.805688 6.36158,-1.27232 30.53563,25.446348 15.90397,3.1808 11.45086,24.17404 15.26781,4.45311 13.35934,15.26781 32.0672,-14.00708 8.01081,3.82854 40.71416,40.07801 17.81245,12.08702 25.44635,12.72317 12.08703,5.08928"
       id="path15-9"
       sodipodi:nodetypes="cccccccccccccccccccccccc" />
    <path
       style="fill:none;stroke:#bbbbbb;stroke-width:12;stroke-linecap:round;stroke-linejoin:round;stroke-dasharray:none;stroke-opacity:1"
       d="m 438.08991,170.75429 -8.27007,17.17629 -1.90848,10.8147"
       id="path23-1" />
    <path
       style="fill:none;stroke:#bababa;stroke-width:12;stroke-linecap:round;stroke-linejoin:round;stroke-dasharray:none;stroke-opacity:1"
       d="m 227.82147,211.56246 21.6294,31.17178 h 20.99324 l 14.63165,15.90398 12.08702,3.81695 22.26556,-1.90848 16.54013,-2.54463 11.45086,12.72317 11.45086,12.72318 29.89947,13.9955"
       id="path17-5"
       inkscape:transform-center-x="-6.6445176"
       inkscape:transform-center-y="0.28292912" />
    <path
       style="fill:none;stroke:#000000;stroke-width:5;stroke-linecap:round;stroke-linejoin:round;stroke-dasharray:none;stroke-opacity:1"
       d="m 90.970718,286.90765 35.624892,-22.26557 5.08927,-22.26555 16.54013,-6.99776 22.26557,-51.52886 9.10437,-0.27115 48.78608,28.26214 53.43734,-36.26106 16.54014,-2.54463 3.81695,-3.1808 12.72318,-31.17178 27.99099,-38.805693 6.36158,-1.272315 30.53563,25.446348 15.90397,3.1808 11.45086,24.17404 15.26781,4.45311 13.35934,15.26781 32.0672,-14.00708 8.01081,3.82854 40.71416,40.07801 17.81245,12.08702 25.44635,12.72317 12.08703,5.08928"
       id="path15"
       sodipodi:nodetypes="cccccccccccccccccccccccc" />
    <path
       style="fill:none;stroke:#000000;stroke-width:5;stroke-linecap:round;stroke-linejoin:round;stroke-dasharray:none;stroke-opacity:1"
       d="m 176.216,183.84991 18.44861,45.80343 -1.90847,10.8147 4.4531,2.54464 22.26556,10.8147 6.36159,19.08477 3.81696,6.36158 23.53788,15.90398"
       id="path16" />
    <path
       style="fill:none;stroke:#000000;stroke-width:5;stroke-linecap:round;stroke-linejoin:round;stroke-dasharray:none;stroke-opacity:1"
       d="m 227.74488,211.8409 21.6294,31.17178 h 20.99324 l 14.63165,15.90398 12.08702,3.81695 22.26556,-1.90848 16.54013,-2.54463 11.45086,12.72317 11.45086,12.72318 29.89947,13.9955"
       id="path17"
       sodipodi:insensitive="true" />
    <path
       style="fill:none;stroke:#000000;stroke-width:5;stroke-linecap:round;stroke-linejoin:round;stroke-dasharray:none;stroke-opacity:1"
       d="m 343.52578,100.5131 14.63166,43.2588 -1.27232,13.35934 22.90172,10.8147 3.18079,14.63165 6.99775,14.63165 8.27006,8.90623"
       id="path18" />
    <path
       style="fill:none;stroke:#000000;stroke-width:5;stroke-linecap:round;stroke-linejoin:round;stroke-dasharray:none;stroke-opacity:1"
       d="m 462.48749,160.94819 6.99775,38.80569 8.90622,13.9955 22.90172,16.54013 8.90622,8.27006"
       id="path19" />
    <path
       style="fill:none;stroke:#000000;stroke-width:5;stroke-linecap:round;stroke-linejoin:round;stroke-dasharray:none;stroke-opacity:1"
       d="m 180.66911,253.82738 -12.72317,28.62715 -15.26782,17.81245"
       id="path20" />
    <path
       style="fill:none;stroke:#000000;stroke-width:5;stroke-linecap:round;stroke-linejoin:round;stroke-dasharray:none;stroke-opacity:1"
       d="m 343.52578,167.30978 -10.81469,34.35258 -21.62941,24.81019"
       id="path21" />
    <path
       style="fill:none;stroke:#000000;stroke-width:5;stroke-linecap:round;stroke-linejoin:round;stroke-dasharray:none;stroke-opacity:1"
       d="m 457.39822,195.93693 -11.45086,9.54238 -6.36159,10.17854 -12.08702,12.72318"
       id="path22" />
    <path
       style="fill:none;stroke:#000000;stroke-width:5;stroke-linecap:round;stroke-linejoin:round;stroke-dasharray:none;stroke-opacity:1"
       d="m 438.31346,169.85441 -8.27007,17.17629 -1.90848,10.8147"
       id="path23" />
    <path
       style="fill:none;stroke:#000000;stroke-width:5;stroke-linecap:round;stroke-linejoin:round;stroke-dasharray:none;stroke-opacity:1"
       d="m 119.7229,363.78332 22.77669,-17.7129 56.61813,26.08251 54.0735,-36.26105 88.42608,29.89946 114.5086,-79.51986 63.61589,24.17404 56.25029,-81.28022"
       id="path24"
       sodipodi:nodetypes="cccccccc" />
    <ellipse
       style="fill:#ffffff;fill-opacity:1;stroke:#000000;stroke-width:5;stroke-linecap:round;stroke-linejoin:round;stroke-dasharray:none;stroke-opacity:1"
       id="path25"
       cx="142.81766"
       cy="349.88736"
       rx="13.041256"
       ry="12.087018" />
    <ellipse
       style="fill:#ffffff;fill-opacity:1;stroke:#000000;stroke-width:5;stroke-linecap:round;stroke-linejoin:round;stroke-dasharray:none;stroke-opacity:1"
       id="path25-5"
       cx="199.35822"
       cy="369.51108"
       rx="13.041256"
       ry="12.087018" />
    <ellipse
       style="fill:#ffffff;fill-opacity:1;stroke:#000000;stroke-width:5;stroke-linecap:round;stroke-linejoin:round;stroke-dasharray:none;stroke-opacity:1"
       id="path25-7"
       cx="253.34491"
       cy="335.27234"
       rx="13.041256"
       ry="12.087018" />
    <ellipse
       style="fill:#ffffff;fill-opacity:1;stroke:#000000;stroke-width:5;stroke-linecap:round;stroke-linejoin:round;stroke-dasharray:none;stroke-opacity:1"
       id="path25-6"
       cx="339.01239"
       cy="364.7099"
       rx="13.041256"
       ry="12.087018" />
    <ellipse
       style="fill:#ffffff;fill-opacity:1;stroke:#000000;stroke-width:5;stroke-linecap:round;stroke-linejoin:round;stroke-dasharray:none;stroke-opacity:1"
       id="path25-2"
       cx="456.46078"
       cy="287.85526"
       rx="13.041256"
       ry="12.087018" />
    <ellipse
       style="fill:#ffffff;fill-opacity:1;stroke:#000000;stroke-width:5;stroke-linecap:round;stroke-linejoin:round;stroke-dasharray:none;stroke-opacity:1"
       id="path25-70"
       cx="521.34918"
       cy="308.64069"
       rx="13.041256"
       ry="12.087018" />
    <ellipse
       style="fill:#ffffff;fill-opacity:1;stroke:#000000;stroke-width:5;stroke-linecap:round;stroke-linejoin:round;stroke-dasharray:none;stroke-opacity:1"
       id="path25-3"
       cx="575.89496"
       cy="230.34239"
       rx="13.041256"
       ry="12.087018" />
    <text
       xml:space="preserve"
       style="font-size:64px;font-family:Rockwell;-inkscape-font-specification:'Rockwell, Normal';display:none;opacity:0.93;fill:#e7e7e7;fill-opacity:1;stroke:#000000;stroke-width:1;stroke-linecap:round;stroke-linejoin:round;stroke-dasharray:none;stroke-opacity:1"
       x="105.70917"
       y="569.28784"
       id="text34"><tspan
         sodipodi:role="line"
         id="tspan34"
         style="stroke-width:1;stroke-dasharray:none"
         x="0"
         y="0">Trails and Stats</tspan></text>
  </g>
</svg>
